<svg xmlns="http://www.w3.org/2000/svg" viewBox="0 0 1000 1000"><defs><style>.cls-1{isolation:isolate;}.cls-2,.cls-3{fill:#58a517;}.cls-3{opacity:0.4;mix-blend-mode:color-burn;}.cls-4,.cls-5{fill:#03202e;}.cls-5{opacity:0.5;mix-blend-mode:screen;}</style></defs><title>Logo</title><g class="cls-1"><g id="Layer_1" data-name="Layer 1"><circle class="cls-2" cx="516.99" cy="907.75" r="59.73"/><path class="cls-3" d="M457.33,905.11a62.84,62.84,0,0,1,119.38,2.82,59.72,59.72,0,0,0-119.38-2.82Z"/><path class="cls-4" d="M741.55,597.84C621.39,731.87,415.32,743.12,281.29,623a327.52,327.52,0,0,1-39.77-42.58,281.94,281.94,0,0,0,87.32,148.91c116.48,104.42,295.55,94.65,400-21.83a282.32,282.32,0,0,0,71.93-204.15A325.34,325.34,0,0,1,741.55,597.84Z"/><path class="cls-5" d="M741.55,597.84C621.39,731.87,415.32,743.12,281.29,623a327.52,327.52,0,0,1-39.77-42.58c11.56,21.4,74,132.16,195,157.6,137.86,29,298-64.14,364.25-234.67A325.34,325.34,0,0,1,741.55,597.84Z"/><circle class="cls-2" cx="857.54" cy="313.46" r="40.43"/><path class="cls-3" d="M875.8,349.53a42.54,42.54,0,0,1-38-71.35,40.42,40.42,0,0,0,38,71.35Z"/><path class="cls-4" d="M595.56,245.13C708.11,291.54,761.73,420.4,715.31,533a221,221,0,0,1-18.18,35,190.68,190.68,0,0,0,75.27-89.25c40.34-97.8-6.26-209.79-104.06-250.12a190.93,190.93,0,0,0-146.4.14A219.71,219.71,0,0,1,595.56,245.13Z"/><path class="cls-5" d="M595.56,245.13C708.11,291.54,761.73,420.4,715.31,533a221,221,0,0,1-18.18,35c11-12.2,67.58-77,56.55-159.85C741.1,313.62,645.62,232.49,521.94,228.68A219.71,219.71,0,0,1,595.56,245.13Z"/><path class="cls-4" d="M211.93,575.88c4.82-225.83,191.8-405,417.64-400.18a411.49,411.49,0,0,1,72.67,8,353.83,353.83,0,0,0-204.87-70.38c-196.26-4.19-358.75,151.51-362.94,347.77a354.31,354.31,0,0,0,98.41,253.17A408.08,408.08,0,0,1,211.93,575.88Z"/><path class="cls-5" d="M211.93,575.88c4.82-225.83,191.8-405,417.64-400.18a411.49,411.49,0,0,1,72.67,8c-28.5-10.92-178.52-65.29-314.47,9.36-154.95,85.1-231.27,304.69-154.93,521.2A408.08,408.08,0,0,1,211.93,575.88Z"/><circle class="cls-2" cx="176.85" cy="107.35" r="74.83"/><path class="cls-3" d="M237.27,63.22a78.73,78.73,0,0,1-119,90.71,74.82,74.82,0,0,0,119-90.71Z"/></g></g></svg>