<svg xmlns="http://www.w3.org/2000/svg" viewBox="0 0 1000 285.3"><defs><style>.cls-1{isolation:isolate;}.cls-2{font-size:97.04px;font-family:Nunito-SemiBold, Nunito;font-weight:600;letter-spacing:0.02em;}.cls-10,.cls-2,.cls-9{fill:#03202e;}.cls-3{letter-spacing:0.02em;}.cls-4,.cls-7,.cls-8{fill:#58a517;}.cls-4{letter-spacing:0.02em;}.cls-5{letter-spacing:0.03em;}.cls-6{letter-spacing:0.02em;}.cls-8{opacity:0.4;mix-blend-mode:color-burn;}.cls-10{opacity:0.5;mix-blend-mode:screen;}</style></defs><title>Logo-Wide</title><g class="cls-1"><g id="Layer_1" data-name="Layer 1"><text class="cls-2" transform="translate(283.65 170.43)">A<tspan class="cls-3" x="72.97" y="0">sante</tspan><tspan class="cls-4" x="325.27" y="0">2</tspan><tspan class="cls-5" x="385.91" y="0">g</tspan><tspan class="cls-6" x="446.07" y="0">e</tspan><tspan class="cls-3" x="499.35" y="0">ther</tspan></text><circle class="cls-7" cx="126.82" cy="237.49" r="13.89"/><path class="cls-8" d="M112.94,236.88a14.62,14.62,0,0,1,27.77.65,13.89,13.89,0,0,0-27.77-.65Z"/><path class="cls-9" d="M179.05,165.41a75.88,75.88,0,0,1-116.3-4.06,65.88,65.88,0,0,0,130.07-17.93A75.57,75.57,0,0,1,179.05,165.41Z"/><path class="cls-10" d="M179.05,165.41a75.88,75.88,0,0,1-116.3-4.06c2.69,5,17.22,30.74,45.35,36.65,32.06,6.75,69.31-14.91,84.72-54.58A75.57,75.57,0,0,1,179.05,165.41Z"/><circle class="cls-7" cx="206.03" cy="99.27" r="9.4"/><path class="cls-8" d="M210.28,107.65a9.9,9.9,0,0,1-8.84-16.59,9.4,9.4,0,0,0,8.84,16.59Z"/><path class="cls-9" d="M145.1,83.37A51.29,51.29,0,0,1,173,150.32a52.1,52.1,0,0,1-4.23,8.13A44.56,44.56,0,0,0,128,79.55,51.27,51.27,0,0,1,145.1,83.37Z"/><path class="cls-10" d="M145.1,83.37A51.29,51.29,0,0,1,173,150.32a52.1,52.1,0,0,1-4.23,8.13c2.57-2.84,15.72-17.91,13.15-37.18C179,99.3,156.74,80.43,128,79.55A51.27,51.27,0,0,1,145.1,83.37Z"/><path class="cls-9" d="M55.87,160.3A95.13,95.13,0,0,1,153,67.22a96.94,96.94,0,0,1,16.91,1.87A82.67,82.67,0,0,0,60.73,192.49,95.07,95.07,0,0,1,55.87,160.3Z"/><path class="cls-10" d="M55.87,160.3A95.13,95.13,0,0,1,153,67.22a96.94,96.94,0,0,1,16.91,1.87c-6.63-2.54-41.52-15.19-73.14,2.18-36,19.79-53.79,70.86-36,121.22A95.07,95.07,0,0,1,55.87,160.3Z"/><circle class="cls-7" cx="47.71" cy="51.33" r="17.4"/><path class="cls-8" d="M61.76,41.06a18.31,18.31,0,0,1-27.67,21.1,17.4,17.4,0,0,0,27.67-21.1Z"/></g></g></svg>