<svg id="Layer_1" data-name="Layer 1" xmlns="http://www.w3.org/2000/svg" viewBox="0 0 1000 1000"><defs><style>.cls-1{font-size:84.26px;font-family:Nunito-Regular, Nunito;}.cls-1,.cls-8,.cls-9{fill:#023059;}.cls-2{letter-spacing:-0.08em;}.cls-3{letter-spacing:0em;}.cls-10,.cls-4,.cls-5,.cls-6{fill:#2196f3;}.cls-5{letter-spacing:-0.01em;}.cls-6{letter-spacing:0em;}.cls-7{fill:#0a1b2b;}.cls-10,.cls-9{fill-rule:evenodd;}</style></defs><title>T-T-S</title><text class="cls-1" transform="translate(55 726.13)"><tspan class="cls-2">T</tspan><tspan x="43.98" y="0">og</tspan><tspan class="cls-3" x="140.12" y="0">e</tspan><tspan x="184.27" y="0">ther </tspan><tspan class="cls-4" x="356.66" y="0">Th</tspan><tspan class="cls-5" x="454.9" y="0">r</tspan><tspan class="cls-6" x="483.8" y="0">ough</tspan><tspan class="cls-7" x="675.06" y="0"> </tspan><tspan x="696.8" y="0">Skills</tspan></text><path class="cls-8" d="M407.31,282.94a152.43,152.43,0,0,1,42.11-23.27A151.13,151.13,0,0,1,598.6,286.81v0a149.74,149.74,0,0,1,26.83,29.77L615,319c-6.68-9.74-20.46-9.66-29.25-17.16h0A132.21,132.21,0,0,0,556.46,283c-32.8-15.45-59.4,10.67-91,22.09C398.84,293,361.26,379,372.36,428.45c-26.61-51.86-4.48-114.56,34.95-145.51Z"/><path class="cls-9" d="M419.52,276.05c-24.67,30.21,23.27-6.41,37.63,17.7,7,11.63,17.68,22.12,31.33,30.94,23.42,15.15,28.73,13.31,41,32.05,8.43,12.78,22.83-13.47.84-31.78-9-7.42-19.55-15-17.88-21.69,2.37-9.4,20.38-9.22,27.75-8.12,33.28,4.78,45.84,11,62.26,22,16.11,10.84,25.07,21.16,31.65,19.89,11-2.15,1.28-11.77-.42-14-11.65-14.84-42.56-44.12-72.68-50.62-37.93-8.21-79.9-39.64-141.5,3.69ZM561.91,304a105.16,105.16,0,0,1,7.63,12.83c9.44,19.35,18.44,21.38,21.74,18,2.32-2.46-4.22-14.09-10.67-25.2a123.14,123.14,0,0,0-18.7-5.62Zm21.33,6.72a110.8,110.8,0,0,1,10.27,15.46c10.1,19.05,19.15,20.76,22.31,17.29,1.79-2-2.11-9.52-7.2-17.95-2.11-1.49-4.39-3-6.76-4.57a127.79,127.79,0,0,0-18.62-10.23Zm-38.77-9.75A77,77,0,0,1,549,309c8.56,17.61,16.72,19.41,19.71,16.34,2.06-2.15-3.38-12.08-9-21.83-4.57-.92-9.58-1.8-15.24-2.59Z"/><path class="cls-4" d="M592.72,519.68a151.23,151.23,0,0,1-191.34-3.82l.05-.05A150.35,150.35,0,0,1,374.6,486l10.4-2.41c6.63,9.75,20.47,9.66,29.25,17.12h0a130.74,130.74,0,0,0,29.25,18.88C476.37,535,503,509,534.6,497.55c66.6,12.07,104.13-73.94,93.07-123.33,26.56,51.81,4.48,114.55-34.95,145.46Z"/><path class="cls-10" d="M580.47,526.62c24.68-30.21-23.22,6.4-37.58-17.7-7-11.68-17.69-22.17-31.35-31-23.4-15.1-28.72-13.26-41.05-32-8.39-12.78-22.79,13.43-.79,31.74,9,7.46,19.54,15,17.82,21.73-2.32,9.36-20.37,9.18-27.69,8.13-33.29-4.83-45.89-11-62.26-22-16.12-10.8-25.08-21.16-31.71-19.85-11,2.11-1.27,11.77.49,14C378,494.52,408.9,523.81,439,530.3c38,8.21,79.91,39.65,141.51-3.68Zm-142.33-28a99.68,99.68,0,0,1-7.65-12.78c-9.44-19.36-18.43-21.38-21.73-18-2.37,2.46,4.17,14.05,10.68,25.2a115,115,0,0,0,18.7,5.58ZM416.8,492a112.82,112.82,0,0,1-10.32-15.45c-10.05-19.1-19.14-20.81-22.31-17.3-1.79,2,2.15,9.53,7.25,18,2.11,1.49,4.35,3,6.76,4.56A130.6,130.6,0,0,0,416.8,492Zm38.76,9.7a91.41,91.41,0,0,1-4.6-8c-8.52-17.61-16.74-19.41-19.67-16.33-2.12,2.11,3.38,12,9,21.82,4.52.92,9.57,1.75,15.23,2.54Z"/></svg>